PathFileType	4	(X/Y/Z)	s01c0402.trc
DataRate	CameraRate	NumFrames	NumMarkers	Units	OrigDataRate	OrigDataStartFrame	OrigNumFrames
200	200	5	48	mm	200	500	2000
Frame#	Time	racr			lacr			c7			jug			rlel			rdr			llel			ldr			s2			lic			ric			lasi			rasi			rpsi			lpsi			rgt			lgt			rth1			rth2			rth3			rth4			rlfc			rsh1			rsh2			rsh3			rsh4			rlmal			rmmal			rcal			rtoe			rmt5			lth1			lth2			lth4			lth3			llfc			lsh1			lsh2			lsh3			lsh4			llmal			lmmal			lcal			ltoe			lmt5			SBIKE			LBIKE			RBIKE			
		X1	Y1	Z1	X2	Y2	Z2	X3	Y3	Z3	X4	Y4	Z4	X5	Y5	Z5	X6	Y6	Z6	X7	Y7	Z7	X8	Y8	Z8	X9	Y9	Z9	X10	Y10	Z10	X11	Y11	Z11	X12	Y12	Z12	X13	Y13	Z13	X14	Y14	Z14	X15	Y15	Z15	X16	Y16	Z16	X17	Y17	Z17	X18	Y18	Z18	X19	Y19	Z19	X20	Y20	Z20	X21	Y21	Z21	X22	Y22	Z22	X23	Y23	Z23	X24	Y24	Z24	X25	Y25	Z25	X26	Y26	Z26	X27	Y27	Z27	X28	Y28	Z28	X29	Y29	Z29	X30	Y30	Z30	X31	Y31	Z31	X32	Y32	Z32	X33	Y33	Z33	X34	Y34	Z34	X35	Y35	Z35	X36	Y36	Z36	X37	Y37	Z37	X38	Y38	Z38	X39	Y39	Z39	X40	Y40	Z40	X41	Y41	Z41	X42	Y42	Z42	X43	Y43	Z43	X44	Y44	Z44	X45	Y45	Z45	X46	Y46	Z46	X47	Y47	Z47	X48	Y48	Z48	
500	2.5000	657.793854	1290.366545	-25.317850	707.097442	1297.950396	-408.398143	670.581942	1406.904763	-212.068549	687.963262	1240.296388	-213.224845	509.897924	1032.590559	34.277147	685.007023	896.141901	-72.130339	561.876234	1078.592978	-556.770320	696.024500	891.264949	-476.875671	160.000642	1192.025857	-234.174151	321.422896	1195.533666	-420.225910	321.965700	1176.388150	-87.509173	313.298748	1137.901417	-399.576769	350.722044	1132.818102	-123.925282	196.425491	1226.934142	-187.331227	186.230647	1232.243481	-292.471630	274.267686	1064.757062	-63.772057	250.586459	1061.646256	-442.887446	336.298584	947.438243	-56.237098	379.864248	877.287844	-66.062002	421.645200	798.969079	-82.791708	427.151028	904.564237	-81.664357	451.694096	690.432812	-110.183070	399.008188	584.125476	-73.690906	370.203033	504.321839	-77.984015	331.397981	424.826167	-87.261010	410.665197	489.399651	-119.932601	264.589928	316.246347	-103.587334	318.396801	332.597444	-180.228738	211.944994	297.556600	-155.650876	470.748223	213.850726	-142.785374	363.101305	209.501430	-72.736613	322.042146	964.133868	-459.982184	394.013745	918.396846	-468.070399	426.876869	957.958172	-458.699944	461.190100	860.067947	-463.573406	506.258177	755.172910	-454.954495	398.681848	726.332161	-476.753495	325.650561	682.365094	-464.359941	251.453426	641.955400	-445.561400	357.779393	636.655056	-437.410866	147.115412	584.564634	-422.661941	174.372074	565.692730	-343.097462	97.188774	605.957331	-375.999854	208.318284	350.567238	-380.439322	140.259116	433.249424	-446.215434	-228.893321	890.972782	-254.010524	-22.743302	80.658551	-456.262982	-22.766465	80.292960	-56.017874	
501	2.5050	658.345065	1292.024805	-27.107381	705.797349	1299.796220	-410.855885	669.788324	1408.532409	-214.110025	688.397427	1242.261700	-215.353509	510.920532	1033.472343	33.787910	685.487194	895.908653	-72.261112	561.877264	1078.451522	-557.238979	696.296816	891.422711	-477.310145	160.232487	1189.722321	-233.901159	320.942118	1194.876783	-420.419279	323.024818	1174.856143	-87.702758	313.696187	1137.404270	-399.635718	351.719331	1131.443234	-124.178944	196.842150	1224.599580	-187.136827	186.181317	1230.299302	-291.996896	274.299014	1062.417582	-64.625431	251.865759	1060.351715	-443.293451	336.019505	944.970426	-56.368973	378.762201	874.271737	-66.105813	419.571457	795.527862	-82.969319	426.427763	901.073099	-81.491186	449.061627	686.553186	-110.041710	396.446822	580.330713	-73.445171	367.676284	500.326337	-77.788551	328.852326	420.913481	-87.085638	408.199384	485.453839	-119.784157	262.020633	312.640253	-103.493344	316.185473	329.192115	-179.830268	209.228780	294.610904	-155.499798	467.176493	208.238892	-142.959074	359.712176	205.298893	-72.675327	324.488820	964.049320	-460.289252	396.954014	919.599787	-468.688116	429.466060	959.529784	-459.220131	465.174700	862.102802	-464.190561	511.037234	757.801431	-455.644137	403.352684	729.771042	-477.195193	330.076215	686.139295	-464.522306	255.391422	646.284928	-445.561574	361.885600	640.400559	-437.739875	151.168209	589.030620	-422.670156	178.374112	570.266896	-342.873739	101.155370	610.515101	-376.009309	212.385501	355.126193	-380.576696	144.274073	437.785065	-446.288936	-228.900244	890.965580	-254.004147	-22.746349	80.662870	-456.262038	-22.760746	80.279567	-56.008656	
502	2.5100	658.964434	1293.881615	-28.902968	704.522197	1301.672219	-413.336584	669.053439	1410.151512	-216.304199	688.762180	1244.225340	-217.503640	512.058278	1034.590986	33.226646	686.031248	895.766405	-72.353962	561.822287	1078.326708	-557.652551	696.512859	891.630888	-477.744494	160.547229	1187.600002	-233.672438	320.470947	1194.314627	-420.612523	323.960727	1173.586634	-87.942381	314.076817	1137.022678	-399.724883	352.748028	1130.109526	-124.353774	197.340988	1222.459197	-186.971450	186.170643	1228.542225	-291.525415	274.981586	1060.241871	-65.012841	253.031551	1059.417509	-443.726611	335.571134	942.653548	-56.570971	377.500911	871.513906	-66.432480	417.597374	792.324855	-82.899688	425.273341	897.632951	-80.353940	446.238299	683.030424	-109.983951	393.744241	576.666506	-73.262872	364.986837	496.792948	-77.648734	326.266341	417.347139	-86.814663	405.578691	481.976137	-119.587933	259.399804	309.286529	-103.505568	313.777066	325.895889	-179.444250	206.501724	292.013545	-155.239642	463.439692	202.514436	-143.049728	355.931557	200.757782	-72.712283	326.919560	964.151022	-460.873218	399.811261	920.939159	-469.272130	431.887280	960.975455	-459.768532	469.042417	864.171058	-464.691603	515.742548	760.533207	-456.176306	407.865415	733.216328	-477.325218	334.331995	689.957234	-464.667946	259.608419	650.406869	-445.543181	366.049041	644.002786	-437.925243	155.165243	593.415124	-422.659227	182.434001	574.629317	-342.785238	105.031396	614.912700	-375.956739	216.844981	359.788877	-380.583595	148.538104	442.390896	-446.225699	-228.905279	890.955838	-253.995269	-22.753407	80.640092	-456.261751	-22.736499	80.273226	-56.015916	
503	2.5150	659.654719	1295.688171	-30.911024	703.271946	1303.474362	-415.932290	668.420964	1411.864638	-218.597153	689.151166	1246.200870	-219.699678	513.373565	1035.911687	32.681453	686.586359	895.642126	-72.425252	561.329839	1078.497128	-558.670150	696.683063	891.864101	-478.184084	161.086088	1185.631167	-233.362950	319.997538	1193.873955	-420.854350	324.935739	1172.390116	-88.208145	314.460947	1136.787437	-399.776974	353.803266	1129.001822	-124.497886	197.881710	1220.576464	-186.835856	186.212176	1227.004485	-291.119988	275.725568	1058.339500	-65.474141	254.264752	1058.646038	-444.183562	335.096644	940.603408	-56.803276	376.300316	869.119728	-66.344766	415.493365	789.374552	-82.834515	424.303488	894.689107	-80.888443	443.337416	679.611671	-109.976572	391.115575	573.131071	-73.170999	362.225710	493.267764	-77.398063	323.519909	413.811322	-86.689446	402.267852	478.547713	-120.073675	256.622627	306.005857	-103.639416	311.182403	322.714797	-179.068682	203.635747	289.446507	-155.069921	459.566618	197.017337	-143.278679	352.129496	196.710634	-72.691515	329.078679	964.324826	-461.639772	402.579408	922.424055	-469.822634	434.093745	962.722365	-460.434632	472.596381	866.387866	-465.307970	520.335963	763.493164	-456.654237	412.241666	736.758855	-477.409539	338.567194	693.824578	-464.594378	263.707979	654.531939	-445.408524	370.044546	647.674195	-438.120307	159.104868	597.710849	-422.626390	186.320535	579.090835	-342.259896	108.750986	619.103549	-375.951164	221.406119	364.361090	-380.550881	152.811931	446.756411	-446.170974	-228.918175	890.947147	-253.985078	-22.734221	80.642589	-456.256686	-22.741529	80.268692	-56.021700	
504	2.5200	660.363232	1297.804772	-32.818490	702.062127	1305.252826	-418.642371	667.847542	1413.592727	-220.959181	689.492824	1248.116918	-222.013887	514.843066	1037.472334	32.157070	687.101571	895.587981	-72.444998	560.849955	1078.624247	-559.569724	696.808449	892.106952	-478.624181	161.546794	1184.184180	-233.206588	319.532793	1193.535256	-421.129588	325.948171	1171.537714	-88.537709	314.834951	1136.682045	-399.858165	354.822873	1128.077553	-124.798503	198.468794	1218.973360	-186.729258	186.265801	1225.701673	-290.771609	276.351815	1056.747960	-65.892975	255.484626	1058.027958	-444.454978	334.567412	938.881804	-57.075546	374.849464	866.781133	-66.742881	413.270503	786.707199	-82.719386	423.335685	892.067004	-80.968265	440.218602	676.439759	-109.980453	388.137859	569.889246	-73.031287	359.350132	489.930066	-77.276035	320.729738	410.501303	-86.491149	399.350234	475.389720	-120.016780	253.766388	303.001728	-103.649941	308.412273	319.654870	-178.701625	200.759547	287.062724	-154.989734	455.522216	191.610885	-143.439869	348.108259	192.532015	-73.188012	331.051705	964.624478	-462.005837	405.252643	924.062708	-470.340309	436.193980	964.447867	-461.118288	475.976958	868.649535	-465.860776	524.713785	766.623506	-457.051968	416.466338	740.426428	-477.380827	342.652385	697.808563	-464.533168	267.433805	658.617776	-445.482736	374.084551	651.425729	-438.151298	162.988996	601.904855	-422.577974	190.083748	583.476792	-342.205715	112.480115	623.154295	-375.814754	226.121123	368.957021	-380.635333	157.167767	451.124102	-446.162979	-228.937788	890.934985	-253.967603	-22.739831	80.650528	-456.246744	-22.748964	80.281280	-56.016225	
